{"title":"The Kettering Incident S01E05 The Forest 720p HDTV HEVC 2CH x265","uid":15409522,"size":412123360,"categoryP":"video","categoryS":"hd___tv_shows","magnet":"?xt=urn:btih:2bb0db6fa50a8ed80c1964ed34dd3a4e8908e8e9&amp;dn=The+Kettering+Incident+S01E05+The+Forest+720p+HDTV+HEVC+2CH+x265&amp;tr=udp%3A%2F%2Ftracker.leechers-paradise.org%3A6969&amp;tr=udp%3A%2F%2Fzer0day.ch%3A1337&amp;tr=udp%3A%2F%2Fopen.demonii.com%3A1337&amp;tr=udp%3A%2F%2Ftracker.coppersurfer.tk%3A6969&amp;tr=udp%3A%2F%2Fexodus.desync.com%3A6969","seeders":4,"leechers":3,"uploader":"nayhtut","files":1,"time":1469544043,"description":"[Screenshots]\r\n\r\n \nhttps://s32.postimg.org/859cxcds5/The_Kettering_Incident_S01_E05_The_Forest_720p_HD.jpg \nhttps://s32.postimg.org/4aak8ik05/The_Kettering_Incident_S01_E05_The_Forest_720p_HD.jpg \nhttps://s32.postimg.org/ss2nwemkl/The_Kettering_Incident_S01_E05_The_Forest_720p_HD.jpg\r\n\r\n\r\n\r\nSource:  The Kettering Incident S01E05 The Forest 720p HDTV x264-Bullrout (1.2 GB)\r\n \r\nComplete name                            : The.Kettering.Incident.S01E05.The.Forest.720p.HDTV.HEVC.2CH.x265.mkv\r\nFormat                                   : Matroska\r\nFormat version                           : Version 4 / Version 2\r\nFile size                                : 393 MiB\r\nDuration                                 : 52mn 10s\r\nOverall bit rate                         : 1 053 Kbps\r\nWriting application                      : Lavf57.25.100\r\nWriting library                          : Lavf57.25.100\r\n\r\nVideo\r\n\r\nID                                       : 1\r\nFormat                                   : V_MPEGH/ISO/HEVC\r\nCodec ID                                 : V_MPEGH/ISO/HEVC\r\nDuration                                 : 52mn 10s\r\nBit rate                                 : 840 Kbps\r\nWidth                                    : 1 280 pixels\r\nHeight                                   : 688 pixels\r\nDisplay aspect ratio                     : 1.85:1\r\nFrame rate                               : 25.000 fps\r\nBits/(Pixel*Frame)                       : 0.038\r\nStream size                              : 314 MiB (80%)\r\nWriting library                          : Lavc57.48.101 libx265\r\nDefault                                  : Yes\r\nForced                                   : No\r\nDURATION                                 : 00:52:10.051000000\r\nNUMBER_OF_FRAMES                         : 78250\r\nNUMBER_OF_BYTES                          : 1144506806\r\n_STATISTICS_WRITING_APP                  : mkvmerge v9.3.1 ('Mask Machine') 64bit\r\n_STATISTICS_WRITING_DATE_UTC             : 2016-07-25 12:37:57\r\n_STATISTICS_TAGS                         : BPS DURATION NUMBER_OF_FRAMES NUMBER_OF_BYTES\r\n\r\nAudio\r\n\r\nID                                       : 2\r\nFormat                                   : AC-3\r\nFormat/Info                              : Audio Coding 3\r\nMode extension                           : CM (complete main)\r\nFormat settings, Endianness              : Big\r\nCodec ID                                 : A_AC3\r\nDuration                                 : 52mn 10s\r\nBit rate mode                            : Constant\r\nBit rate                                 : 192 Kbps\r\nChannel(s)                               : 2 channels\r\nChannel positions                        : Front: L R\r\nSampling rate                            : 48.0 KHz\r\nBit depth                                : 16 bits\r\nCompression mode                         : Lossy\r\nStream size                              : 71.6 MiB (18%)\r\nWriting library                          : Lavc57.24.102 ac3\r\nDefault                                  : Yes\r\nForced                                   : No\r\nDURATION                                 : 00:52:10.079000000\r\nNUMBER_OF_FRAMES                         : 97813\r\nNUMBER_OF_BYTES                          : 150240768\r\n_STATISTICS_WRITING_APP                  : mkvmerge v9.3.1 ('Mask Machine') 64bit\r\n_STATISTICS_WRITING_DATE_UTC             : 2016-07-25 12:37:57\r\n_STATISTICS_TAGS                         : BPS DURATION NUMBER_OF_FRAMES NUMBER_OF_BYTES\r\n\r\nIMDb: http://www.imdb.com/title/tt4228802\r\n\r\n\r\n__--__--__--__--__--__--__--__--__--__--__--__--__--\r\n\r\n\r\nAfter adding torrent with maget link,\r\n\r\nplease add this  following trackers list to the torrent for better seeds.\r\n\r\n\r\nudp://tracker.coppersurfer.tk:6969/announce\r\n\r\nudp://tracker.opentrackr.org:1337/announce\r\n \nhttp://tracker.baravik.org:6970/announce\r\n \nhttp://tracker2.wasabii.com.tw:6969/announce\r\n\r\nudp://9.rarbg.me:2710/announce\r\n\r\n\r\n__--__--__--__--__--__--__--__--__--__--__--__--__--\r\n\r\n\r\nEnjoy!","torrent":{"xt":"urn:btih:2bb0db6fa50a8ed80c1964ed34dd3a4e8908e8e9","amp;dn":"The+Kettering+Incident+S01E05+The+Forest+720p+HDTV+HEVC+2CH+x265","amp;tr":["udp%3A%2F%2Ftracker.leechers-paradise.org%3A6969","udp%3A%2F%2Fzer0day.ch%3A1337","udp%3A%2F%2Fopen.demonii.com%3A1337","udp%3A%2F%2Ftracker.coppersurfer.tk%3A6969","udp%3A%2F%2Fexodus.desync.com%3A6969"],"infoHash":"2bb0db6fa50a8ed80c1964ed34dd3a4e8908e8e9","infoHashBuffer":{"type":"Buffer","data":[43,176,219,111,165,10,142,216,12,25,100,237,52,221,58,78,137,8,232,233]},"announce":[],"urlList":[]}}